<?xml version="1.0" encoding="UTF-8"?>
<svg id="mask" xmlns="http://www.w3.org/2000/svg" viewBox="0 0 33 32.03">
  <defs>
    <style>
      .cls-1 {
        fill: #ffcb03;
        stroke: #ffcb03;
        stroke-miterlimit: 10;
      }
    </style>
  </defs>
  <path class="cls-1" d="M18.25,1.59c-.32-.67-1-1.09-1.75-1.09s-1.42,.42-1.74,1.09l-3.9,8.02-8.7,1.28c-.73,.1-1.33,.61-1.56,1.31-.23,.7-.04,1.47,.48,1.99l6.32,6.19-1.49,8.88c-.13,.73,.18,1.47,.78,1.9s1.39,.48,2.05,.14l7.77-4.15,7.78,4.15c.65,.35,1.44,.29,2.04-.14,.61-.43,.9-1.17,.78-1.9l-1.49-8.88,6.31-6.19c.52-.52,.71-1.28,.48-1.99-.23-.7-.84-1.21-1.56-1.31l-8.71-1.28L18.24,1.59h.01Z"/>
</svg>