<?xml version="1.0" encoding="utf-8"?>
<!-- Generator: Adobe Illustrator 26.3.1, SVG Export Plug-In . SVG Version: 6.00 Build 0)  -->
<svg version="1.1" id="mask" xmlns="http://www.w3.org/2000/svg" xmlns:xlink="http://www.w3.org/1999/xlink" x="0px" y="0px"
	 viewBox="0 0 33 32" style="enable-background:new 0 0 33 32;" xml:space="preserve">
<style type="text/css">
	.st0{fill:none;stroke:#FFCB03;stroke-miterlimit:10;}
	.st1{display:none;fill:#FFCB03;stroke:#FFCB03;stroke-miterlimit:10;}
</style>
<path class="st0" d="M18.2,1.6c-0.3-0.7-1-1.1-1.8-1.1s-1.4,0.4-1.7,1.1l-3.9,8l-8.7,1.3c-0.7,0.1-1.3,0.6-1.6,1.3
	c-0.2,0.7,0,1.5,0.5,2l6.3,6.2l-1.5,8.9c-0.1,0.7,0.2,1.5,0.8,1.9s1.4,0.5,2.1,0.1l7.8-4.1l7.8,4.1c0.6,0.3,1.4,0.3,2-0.1
	c0.6-0.4,0.9-1.2,0.8-1.9l-1.5-8.9l6.3-6.2c0.5-0.5,0.7-1.3,0.5-2c-0.2-0.7-0.8-1.2-1.6-1.3l-8.7-1.3L18.2,1.6L18.2,1.6L18.2,1.6z"
	/>
<path class="st1" d="M63.7,1.6c-0.3-0.7-1-1.1-1.8-1.1s-1.4,0.4-1.7,1.1l-3.9,8l-8.7,1.3c-0.7,0.1-1.3,0.6-1.6,1.3
	c-0.2,0.7,0,1.5,0.5,2l6.3,6.2l-1.5,8.9c-0.1,0.7,0.2,1.5,0.8,1.9s1.4,0.5,2.1,0.1l7.8-4.1l7.8,4.1c0.6,0.3,1.4,0.3,2-0.1
	c0.6-0.4,0.9-1.2,0.8-1.9L71,20.4l6.3-6.2c0.5-0.5,0.7-1.3,0.5-2c-0.2-0.7-0.8-1.2-1.6-1.3l-8.7-1.3L63.7,1.6L63.7,1.6L63.7,1.6z"/>
</svg>
