<svg id="Layer_1" data-name="Layer 1" xmlns="http://www.w3.org/2000/svg" viewBox="0 0 320 131.31">
  <defs>
    <style>
      .cls-1 {
        fill: #fff;
      }

      .cls-2 {
        fill: #ffcb03;
      }
    </style>
  </defs>
  <g id="togo">
    <path class="cls-1" d="M188.27,105.27c0-19.64,14.48-34.23,34.78-34.23,17.33,0,28.53,10.09,28.53,25.67,0,19.64-14.6,34.34-34.89,34.34C199.46,131.05,188.27,120.74,188.27,105.27Zm49.48-7.9c0-9.11-5.59-14.7-15.47-14.7-11.63,0-20.19,9-20.19,21.94,0,9.11,5.6,14.7,15.47,14.7C229.19,119.31,237.75,110.32,237.75,97.37Z"/>
    <path class="cls-1" d="M256.69,105.53c0-19.64,14.48-34.23,34.78-34.23C308.81,71.3,320,81.39,320,97c0,19.64-14.59,34.34-34.89,34.34C267.88,131.31,256.69,121,256.69,105.53Zm49.49-7.9c0-9.11-5.6-14.7-15.47-14.7-11.64,0-20.19,9-20.19,21.94,0,9.11,5.59,14.7,15.47,14.7C297.62,119.57,306.18,110.58,306.18,97.63Z"/>
    <path class="cls-2" d="M276.41,68.24c-11.18,0-19.4,8.64-19.4,21.08,0,8.75,5.38,14.13,14.87,14.13a18.52,18.52,0,0,0,16.4-9.3H273.19a11,11,0,0,1,11-11l20.3,0c-.69,18.16-14.48,31.58-33.5,31.58-16.55,0-27.31-9.91-27.31-24.77,0-18.88,13.92-32.9,33.43-32.9h30A11.17,11.17,0,0,1,296,68.23Z"/>
    <path class="cls-2" d="M230,114.73c-16.51,0-27.77-9.62-27.77-25.95a38.85,38.85,0,0,1,.73-7.62l9.2-45.31-26,0,.34-1.61a15.12,15.12,0,0,1,14.81-12.08h14.55l1.95-9.93A15.12,15.12,0,0,1,232.6,0h3L231,22.14h26.14l-.29,1.41a15.13,15.13,0,0,1-14.73,12.11l-14.75.09L218.31,81c-.18,1.45-.37,6.14-.37,7.42,0,6.71,3.45,10.88,11.44,10.88h29.46l15.09,15.32-44,.13"/>
  </g>
  <g id="food">
    <path class="cls-1" d="M199.29,35.76,183.68,114H171.14l1.15-5.8a27.11,27.11,0,0,1-18.23,6.53c-13.92,0-24.78-9.17-24.78-24.77,0-19.19,13.6-32.9,31.63-32.9,8.75,0,15.5,2.95,19.19,8.75l6-30.05Zm-22.57,46.6c0-8.75-5.37-14.12-14.86-14.12-11.18,0-19.3,8.64-19.3,21.08,0,8.75,5.38,14.13,14.87,14.13C168.6,103.45,176.72,94.81,176.72,82.36Z"/>
    <path class="cls-1" d="M36.77,90.22C36.77,71.74,50.4,58,69.5,58c16.32,0,26.85,9.5,26.85,24.16,0,18.48-13.73,32.32-32.84,32.32C47.3,114.49,36.77,104.78,36.77,90.22Zm46.57-7.43C83.34,74.22,78.07,69,68.78,69c-11,0-19,8.47-19,20.65,0,8.57,5.27,13.84,14.56,13.84C75.29,103.44,83.34,95,83.34,82.79Z"/>
    <path class="cls-1" d="M82.88,90.47c0-18.49,13.63-32.22,32.73-32.22,16.32,0,26.85,9.5,26.85,24.16,0,18.49-13.73,32.32-32.84,32.32C93.41,114.73,82.88,105,82.88,90.47ZM129.45,83c0-8.57-5.27-13.84-14.56-13.84-11,0-19,8.47-19,20.66,0,8.57,5.27,13.83,14.56,13.83C121.4,103.68,129.45,95.22,129.45,83Z"/>
    <path class="cls-1" d="M27.87,48.07,23,72H54.33L48.8,84.37H20.68l-6.07,30.12H0L13.24,48.27A15.49,15.49,0,0,1,28.43,35.82H73.17a15.28,15.28,0,0,1-15,12.25Z"/>
  </g>
</svg>
