<svg id="Layer_1" data-name="Layer 1" xmlns="http://www.w3.org/2000/svg" viewBox="0 0 91.01 89.37">
  <defs>
    <style>
      .cls-1 {
        fill: #fff;
      }

      .cls-2 {
        fill: #ffcb03;
      }
    </style>
  </defs>
  <g id="togo">
    <path class="cls-1" d="M1.36,71.65c0-13.37,9.85-23.3,23.67-23.3,11.8,0,19.41,6.87,19.41,17.47,0,13.37-9.93,23.37-23.74,23.37C9,89.19,1.36,82.18,1.36,71.65ZM35,66.27c0-6.2-3.81-10-10.53-10-7.92,0-13.74,6.13-13.74,14.94,0,6.2,3.8,10,10.53,10C29.21,81.2,35,75.08,35,66.27Z"/>
    <path class="cls-1" d="M47.93,71.82c0-13.36,9.85-23.3,23.67-23.3C83.4,48.52,91,55.39,91,66c0,13.36-9.93,23.37-23.74,23.37C55.54,89.37,47.93,82.35,47.93,71.82ZM81.6,66.45c0-6.2-3.8-10-10.52-10-7.92,0-13.74,6.12-13.74,14.93,0,6.2,3.8,10,10.52,10C75.78,81.38,81.6,75.26,81.6,66.45Z"/>
    <path class="cls-2" d="M61.35,46.44c-7.61,0-13.21,5.89-13.21,14.35,0,6,3.66,9.62,10.12,9.62A12.6,12.6,0,0,0,69,64.83a.48.48,0,0,0-.4-.75H59.16a7.51,7.51,0,0,1,7.51-7.51l13.3,0a.49.49,0,0,1,.49.51c-.7,12.1-10,21-22.77,21-11.27,0-18.59-6.75-18.59-16.87,0-12.84,9.47-22.39,22.75-22.39H82.27a7.61,7.61,0,0,1-7.58,7.61Z"/>
    <path class="cls-2" d="M29.73,78.09c-11.24,0-18.89-6.55-18.89-17.67a26.19,26.19,0,0,1,.49-5.18L17.47,25A.48.48,0,0,0,17,24.4H.48A.48.48,0,0,1,0,23.81l0-.14a10.77,10.77,0,0,1,10.55-8.6H19.7a.49.49,0,0,0,.48-.39l1.17-6A10.78,10.78,0,0,1,31.93,0h1a.48.48,0,0,1,.47.58L30.57,14.49a.48.48,0,0,0,.47.58H47.65a.48.48,0,0,1,.47.58h0a10.78,10.78,0,0,1-10.5,8.62l-9.25.06a.48.48,0,0,0-.47.38L21.81,55.09a.08.08,0,0,0,0,0c-.12,1-.25,4.17-.25,5,0,4.57,2.35,7.41,7.79,7.41H49.19a.46.46,0,0,1,.34.15l9.32,9.46a.48.48,0,0,1-.34.82l-28.78.09"/>
  </g>
</svg>
